<svg version="1.1" id="Layer_1" xmlns="http://www.w3.org/2000/svg" xmlns:xlink="http://www.w3.org/1999/xlink" x="0" y="0" viewBox="0 0 450.1 288.2" xml:space="preserve" enable-background="new 0 0 450.1 288.2"><style type="text/css">.st0{fill:#fff}</style><g><path class="st0" d="M122.9,113.4h-111l-4.8,10.2l19.3,2C39,127,42.4,132.4,37,145l-22.4,50.9C3.1,222.3,0,235.3,0,246.8 c0,26.2,16.6,41.4,46.5,41.4c30.2,0,45.1-16.7,60.4-54.3H93.7c-10.9,24.1-18.3,35-27.8,35c-9.2,0-5.8-11.2,1.3-27.8L122.9,113.4z"/><path class="st0" d="M235.2,172.1c10.8-25.4,20.7-39,31.6-39c12.2,0,9.2,13.9,1.7,31.2l-50.6,118.8h75.7l46.2-111 c10.5-25.8,19.7-39,30.6-39c12.2,0,8.1,13.9,0.7,31.2l-13.2,31.6c-11.5,26.5-14.6,39.4-14.6,50.9c0,26.2,16.6,41.4,46.5,41.4 c30.2,0,45.2-16.7,60.4-54.3h-13.3c-10.8,24.1-18.3,35-27.8,35c-9.2,0-5.8-11.2,1.4-27.8l24.8-57.4c5.4-12.6,8.8-23.8,8.8-36 c0-21.4-12.5-39.4-43.1-39.4c-27.5,0-47.2,16.6-58,37.4c-1.4-17.3-14.9-37.4-43.5-37.4c-24.8,0-46.2,11.6-60.1,36 c6.1-15.3,10.9-37,10.9-51.2c0-52.3-34.3-93-99.1-93c-49.2,0-83.8,26.1-83.8,62.4c0,21,13.6,35.3,34.6,35.3 c21.1,0,30.9-12.2,30.9-27.5c0-18-14.6-20-14.6-36.7c0-15.6,13.6-23.4,38.4-23.4c48.2,0,78.7,30.9,78.7,66.9 c0,24.5-8.5,36.3-34,36.3H147l-4.8,10.2l19.4,2c12.6,1.4,16,6.8,10.5,19.4l-60.4,138.1h75.7L235.2,172.1z"/></g></svg>