<?xml version="1.0" encoding="utf-8"?>
<!-- Generator: Adobe Illustrator 21.1.0, SVG Export Plug-In . SVG Version: 6.00 Build 0)  -->
<svg version="1.1" id="Layer_1" xmlns="http://www.w3.org/2000/svg" xmlns:xlink="http://www.w3.org/1999/xlink" x="0px" y="0px"
	 viewBox="0 0 446.2 192.4" style="enable-background:new 0 0 446.2 192.4;" xml:space="preserve">
<style type="text/css">
	.st0{fill-rule:evenodd;clip-rule:evenodd;fill:#FFFFFF;}
</style>
<polygon class="st0" points="149.4,191 149.4,0 116.4,0 116.4,129.3 35.6,0 0,0 0,191 32.9,191 32.9,59.8 114.8,191 "/>
<path class="st0" d="M191.5,191V50.7h-32.9V191H191.5z M192.3,33.5V0.1h-34.8v33.4H192.3z"/>
<polygon class="st0" points="315.9,191.2 315.9,163.4 243,163.4 315.4,81 315.4,50.5 203.6,50.5 203.6,78.3 276.3,78.3 203.1,161.5 
	203.1,191.2 "/>
<path class="st0" d="M413.2,120c0,13.3-1.9,26.6-10.2,35.6c-4.7,4.9-12.4,9-21.8,9c-9.4,0-17.1-4.1-21.8-9
	c-8.3-9-10.2-22.3-10.2-35.6c0-13.3,1.9-26.6,10.2-35.6c4.7-4.9,12.4-9,21.8-9c9.4,0,17.1,4.1,21.8,9
	C411.3,93.4,413.2,106.7,413.2,120z M446.2,120c0-23.9-5.7-38.8-15.8-51.7C421,57.1,403,47.7,381.2,47.7c-21.8,0-39.8,9.4-49.2,20.6
	c-10.1,12.8-15.8,27.8-15.8,51.7c0,23.9,5.7,38.8,15.8,51.7c9.3,11.2,27.3,20.7,49.2,20.7c21.8,0,39.8-9.4,49.2-20.7
	C440.5,158.9,446.2,143.9,446.2,120z"/>
</svg>
