<svg width="64" height="84" viewBox="0 0 64 84" fill="none" xmlns="http://www.w3.org/2000/svg">
<path d="M45.056 35.216C45.056 39.6107 44.096 43.536 42.176 46.992C40.256 50.4053 37.5253 53.0933 33.984 55.056C30.4427 57.0187 26.2827 58 21.504 58H3.456V12.688H21.504C26.2827 12.688 30.4427 13.648 33.984 15.568C37.568 17.4453 40.2987 20.0907 42.176 23.504C44.096 26.9173 45.056 30.8213 45.056 35.216ZM20.352 46.736C24.064 46.736 26.9867 45.7333 29.12 43.728C31.2533 41.7227 32.32 38.8853 32.32 35.216C32.32 31.5893 31.2533 28.7733 29.12 26.768C26.9867 24.72 24.064 23.696 20.352 23.696H16.064V46.736H20.352ZM61.778 45.712V58H49.042V45.712H61.778Z" fill="#021718"/>
</svg>
